<svg xmlns="http://www.w3.org/2000/svg" viewBox="0 0 360 360">
  <rect width="344" height="344" x="8" y="8" fill="#fff" rx="20.774" ry="20.774"/>
  <path fill="#ed1c24" d="M331.226 16C338.269 16 344 21.73 344 28.774v302.452c0 7.043-5.73 12.774-12.774 12.774H28.774C21.73 344 16 338.27 16 331.226V28.774C16 21.73 21.73 16 28.774 16h302.452m0-16H28.774C12.883 0 0 12.883 0 28.774v302.452C0 347.117 12.883 360 28.774 360h302.452C347.117 360 360 347.117 360 331.226V28.774C360 12.883 347.117 0 331.226 0Z"/>
  <path fill="none" stroke="#ed1c24" stroke-linecap="round" stroke-linejoin="round" stroke-width="16" d="m36 324 144-144H36L180 36"/>
  <path fill="none" stroke="#ed1c24" stroke-linecap="round" stroke-miterlimit="10" stroke-width="16" d="M180 324V36"/>
  <path fill="none" stroke="#ed1c24" stroke-linecap="round" stroke-linejoin="round" stroke-width="16" d="M180 180 324 36M252 36l-72 72"/>
</svg>